<svg xmlns="http://www.w3.org/2000/svg" width="27" height="39.774" viewBox="0 0 27 39.774">
  <g id="Group_1" data-name="Group 1" transform="translate(-3770 2043)">
    <path id="Path_4" data-name="Path 4" d="M194.439,46.416a14.019,14.019,0,0,0-3.708-2.945,13.014,13.014,0,0,0-5.326-1.429c-.359-.028-.721-.042-1.075-.042a13.576,13.576,0,0,0-13.3,14.132c.253,3.528,2.274,6.3,3.9,8.529l.069.1c.29.4.591.786.91,1.2a20.328,20.328,0,0,1,2.787,4.339l.086.195a5.634,5.634,0,0,1,.638,1.994,1.047,1.047,0,0,1-.328.65,1.154,1.154,0,0,0-.317,1.221c.228.86,1.312.86,2.567.86h6.542c1.035,0,2.106,0,2.334-.861a1.312,1.312,0,0,0-.367-1.3,1.04,1.04,0,0,1-.279-.486c-.122-.864.811-2.827,1.73-4.284a30.242,30.242,0,0,1,1.806-2.492c.278-.357.542-.694.791-1.032q.2-.268.4-.535c1.67-2.239,3.4-4.554,3.662-8A12.852,12.852,0,0,0,194.439,46.416Zm-2.491,16.6-.358.473q-.312.414-.625.821c-1.875,2.45-3.647,4.768-4.062,8.292h-4.815c-.517-3.726-2.323-6.1-4.234-8.616l-.448-.591-.255-.337c-1.488-1.963-3.175-4.188-3.417-6.789a10.3,10.3,0,0,1,3.179-8.533,10.552,10.552,0,0,1,7.612-3.132c.335,0,.678.014,1.021.042a10.677,10.677,0,0,1,9.715,9.8c.274,3.835-1.55,6.239-3.314,8.564Z" transform="translate(3599 -2085)" fill="#231f20"/>
    <path id="Path_5" data-name="Path 5" d="M188.432,79.48a10.2,10.2,0,0,0-1.97-.129c-.488,0-1.017.011-1.529.021s-1.03.021-1.507.021c-.21,0-.428,0-.658-.008s-.481-.008-.722-.008c-.855,0-2.634,0-2.719,1.121a.9.9,0,0,0,.295.767,3.8,3.8,0,0,0,2.37.509c.417,0,.855-.016,1.279-.031s.812-.029,1.18-.029l.882,0c.688,0,1.452,0,2.1,0,1.106-.01,2.152-.02,2.232-1.024C189.744,79.758,188.985,79.6,188.432,79.48Z" transform="translate(3599 -2085)" fill="#231f20"/>
  </g>
</svg>
