<svg xmlns="http://www.w3.org/2000/svg" width="32" height="32" viewBox="0 0 32 32">
  <path id="Path_3" data-name="Path 3" d="M295.869,63.664a5.018,5.018,0,0,1-1.072-.193,15.7,15.7,0,0,1-2.1-.626,3.2,3.2,0,0,0-3.971,1.606l-.352.739a18.83,18.83,0,0,1-7.477-7.5l.737-.337a3.217,3.217,0,0,0,1.6-3.982,16.8,16.8,0,0,1-.625-2.12c-.08-.353-.144-.723-.192-1.076a4.806,4.806,0,0,0-4.8-4H272.8a4.805,4.805,0,0,0-4.755,5.46,30.48,30.48,0,0,0,26.273,26.352,4.088,4.088,0,0,0,.624,0,4.805,4.805,0,0,0,4.8-4.817V68.353a4.814,4.814,0,0,0-3.875-4.689Zm.785,9.635a1.614,1.614,0,0,1-1.14,1.537,1.593,1.593,0,0,1-.7.052A27.376,27.376,0,0,1,271.2,51.219a1.612,1.612,0,0,1,.4-1.317,1.6,1.6,0,0,1,1.2-.53h4.8a1.6,1.6,0,0,1,1.6,1.253,6.34,6.34,0,0,0,.24,1.317,17.74,17.74,0,0,0,.737,2.473l-2.242,1.06a1.676,1.676,0,0,0-.832,2.12,23.231,23.231,0,0,0,11.207,11.241A1.666,1.666,0,0,0,290.426,68l1.009-2.248a19.837,19.837,0,0,0,2.529.739c.417.1.865.177,1.3.241a1.6,1.6,0,0,1,1.249,1.606ZM287.208,46h-1.121a1.612,1.612,0,0,0,.273,3.212h.848a9.62,9.62,0,0,1,9.606,9.635V59.7a1.6,1.6,0,0,0,1.457,1.734h.128a1.6,1.6,0,0,0,1.6-1.461V58.847A12.828,12.828,0,0,0,287.208,46Zm3.2,12.847a1.6,1.6,0,1,0,3.2,0,6.414,6.414,0,0,0-6.4-6.423,1.606,1.606,0,0,0,0,3.212,3.207,3.207,0,0,1,3.2,3.212Z" transform="translate(-268 -46)"/>
</svg>
