<svg xmlns="http://www.w3.org/2000/svg" width="33" height="32" viewBox="0 0 33 32">
  <path id="Path_6" data-name="Path 6" d="M55.561,43.331a1.141,1.141,0,0,0,0-.161,4.212,4.212,0,0,0-1.3-2.952,4.421,4.421,0,0,0-6.089,0,4.212,4.212,0,0,0-1.308,2.951c.335,2.1,1.214,2.765,1.9,4.32L39.242,47.3l-.185,9.229c-1.8-.687-3.1-1.923-4.628-1.952a1.314,1.314,0,0,0-.166,0,4.4,4.4,0,0,0-3.018,1.274,4.188,4.188,0,0,0-.005,5.954,4.4,4.4,0,0,0,3.016,1.28c2.277-.346,2.9-1.292,4.707-1.972l-.192,9.429,9.557.184c-.685-1.619-1.594-2.266-1.935-4.407a4.212,4.212,0,0,1,1.308-2.95,4.421,4.421,0,0,1,6.088,0,4.211,4.211,0,0,1,1.3,2.952,1.366,1.366,0,0,1,0,.162c-.029,1.437-1.2,2.668-1.917,4.333l9.358.18L63,47.752l-9.323-.179C54.4,45.956,55.532,44.746,55.561,43.331Z" transform="translate(-30 -39)"/>
</svg>
